# xmcd
#
# Track frame offsets:
#	150
#	13148
#	27294
#	37528
#	50544
#	62686
#	75634
#	89739
#	99923
#	112872
#	125084
#	142307
#	154913
#	166793
#	177462
#	190314
#	201630
#	218827
#	231383
#	243901
#	254524
#	267302
#
# Disc length: 3713 seconds
#
# Revision: 0
# Processed by: cddbd v1.5.2PL0 Copyright (c) Steve Scherf et al.
# Submitted via: EZCDAudioConverter 8.5.0.1
#
DISCID=3e0e7f16
DTITLE=The Electric Banana - The Complete De Wolfe Sessions Cd1
DYEAR=1900
DGENRE=
TTITLE0=Walking Down The Street
TTITLE1=If I Needed Somebody
TTITLE2=Free Love
TTITLE3='Cause I'm A Man
TTITLE4=Danger Signs
TTITLE5=Walking Down The Street [Instrumental]
TTITLE6=If I Needed Somebody [Instrumental]
TTITLE7=Free Love [Instrumental]
TTITLE8='Cause I'm A Man [Instrumental]
TTITLE9=Danger Signs [Instrumental]
TTITLE10=I See You
TTITLE11=Street Girl
TTITLE12=Grey Skies
TTITLE13=I Love You
TTITLE14=Love Dance And Sing
TTITLE15=A Thousand Ages From The Sun
TTITLE16=I See You [Instrumental]
TTITLE17=Street Girl [Instrumental]
TTITLE18=Grey Skies [Instrumental]
TTITLE19=I Love You [Instrumental]
TTITLE20=Love Dance And Sing [Instrumental]
TTITLE21=A Thousand Ages From The Sun [Instrumental]
EXTD=
EXTT0=
EXTT1=
EXTT2=
EXTT3=
EXTT4=
EXTT5=
EXTT6=
EXTT7=
EXTT8=
EXTT9=
EXTT10=
EXTT11=
EXTT12=
EXTT13=
EXTT14=
EXTT15=
EXTT16=
EXTT17=
EXTT18=
EXTT19=
EXTT20=
EXTT21=
PLAYORDER=
